<?xml version="1.0" encoding="iso-8859-1"?>
<!-- Generator: Adobe Illustrator 19.0.0, SVG Export Plug-In . SVG Version: 6.00 Build 0)  -->
<svg version="1.1" id="Layer_1" xmlns="http://www.w3.org/2000/svg" xmlns:xlink="http://www.w3.org/1999/xlink" x="0px" y="0px"
	 viewBox="0 0 512 512" style="enable-background:new 0 0 512 512;" xml:space="preserve">
<path style="fill:#D0D1D2;" d="M266.905,359.848h-21.813c-5.806,0-10.513,4.707-10.513,10.513v131.126
	c0,5.806,4.707,10.513,10.513,10.513h21.813c5.806,0,10.513-4.707,10.513-10.513V370.361
	C277.418,364.554,272.712,359.848,266.905,359.848z"/>
<path style="opacity:0.1;enable-background:new    ;" d="M266.905,359.848h-21.813c-5.806,0-10.513,4.707-10.513,10.513v61.843
	c6.969,1.157,14.122,1.769,21.419,1.769s14.45-0.612,21.419-1.769v-61.843C277.418,364.554,272.711,359.848,266.905,359.848z"/>
<path style="fill:#E8A8C2;" d="M412.292,225.522c10.461-13.38,16.713-30.211,16.713-48.511c0-39.22-28.639-71.738-66.142-77.818
	C358.787,43.731,312.501,0,255.999,0S153.211,43.731,149.136,99.192c-37.503,6.08-66.142,38.598-66.142,77.818
	c0,18.301,6.252,35.131,16.713,48.511c-13.509,16.332-21.627,37.286-21.627,60.137c0,50.775,40.081,92.181,90.329,94.321
	c23.091,21.114,53.835,33.998,87.591,33.998c33.755,0,64.499-12.884,87.591-33.998c50.248-2.14,90.329-43.547,90.329-94.321
	C433.919,262.808,425.8,241.854,412.292,225.522z"/>
<path style="opacity:0.05;enable-background:new    ;" d="M148.31,99.345c0.307-0.019,0.591-0.061,0.825-0.153
	C148.858,99.237,148.587,99.298,148.31,99.345z M219.481,6.391c-38.818,14.072-67.195,49.928-70.345,92.801
	c2.389,5.731,8.521,6.892,12.021,5.731c8.647-2.867,9.179-13.727,10.257-20.051C176.664,54.091,194.605,24.902,219.481,6.391z
	 M277.418,400.28c-29.228,0-56.198-9.659-77.897-25.957c-6.425-4.826-13.939-7.974-21.856-9.347
	c-44.401-7.701-78.166-46.413-78.166-93.015c0-18.205,5.153-35.205,14.079-49.624c4-6.461,4.182-14.503,0.524-21.164
	c-6.172-11.236-9.688-24.135-9.688-37.86c0-23.32,10.127-44.267,26.22-58.7c-28.018,12.092-47.64,39.942-47.64,72.398
	c0,18.301,6.252,35.131,16.713,48.511c-13.509,16.332-21.627,37.286-21.627,60.137c0,50.775,40.081,92.181,90.329,94.321
	c23.091,21.114,53.835,33.998,87.591,33.998c30.28,0,58.132-10.372,80.215-27.748C318.562,395.212,298.583,400.28,277.418,400.28z"
	/>
<g>
	<path style="fill:#394049;" d="M194.157,172.604c-4.143,0-7.5-3.358-7.5-7.5c0-2.579-2.098-4.677-4.677-4.677
		s-4.677,2.098-4.677,4.677c0,4.142-3.357,7.5-7.5,7.5s-7.5-3.358-7.5-7.5c0-10.85,8.827-19.677,19.677-19.677
		s19.677,8.827,19.677,19.677C201.657,169.246,198.3,172.604,194.157,172.604z"/>
	<path style="fill:#394049;" d="M342.194,172.604c-4.143,0-7.5-3.358-7.5-7.5c0-2.579-2.098-4.677-4.677-4.677
		s-4.677,2.098-4.677,4.677c0,4.142-3.357,7.5-7.5,7.5s-7.5-3.358-7.5-7.5c0-10.85,8.827-19.677,19.677-19.677
		s19.677,8.827,19.677,19.677C349.694,169.246,346.337,172.604,342.194,172.604z"/>
</g>
<g>
	<path style="fill:#FFFFFF;" d="M192.219,196.773h-20.476c-4.143,0-7.5-3.358-7.5-7.5s3.357-7.5,7.5-7.5h20.476
		c4.143,0,7.5,3.358,7.5,7.5S196.361,196.773,192.219,196.773z"/>
	<path style="fill:#FFFFFF;" d="M340.255,196.773h-20.476c-4.143,0-7.5-3.358-7.5-7.5s3.357-7.5,7.5-7.5h20.476
		c4.143,0,7.5,3.358,7.5,7.5S344.397,196.773,340.255,196.773z"/>
</g>
<path style="fill:#394049;" d="M267.952,184.976c-4.502,0-8.653-1.538-11.953-4.115c-3.3,2.577-7.451,4.115-11.953,4.115
	c-10.727,0-19.454-8.727-19.454-19.453c0-4.142,3.357-7.5,7.5-7.5s7.5,3.358,7.5,7.5c0,2.455,1.998,4.453,4.454,4.453
	c2.455,0,4.453-1.998,4.453-4.453c0-4.142,3.357-7.5,7.5-7.5s7.5,3.358,7.5,7.5c0,2.455,1.998,4.453,4.453,4.453
	c2.456,0,4.454-1.998,4.454-4.453c0-4.142,3.357-7.5,7.5-7.5s7.5,3.358,7.5,7.5C287.406,176.249,278.679,184.976,267.952,184.976z"
	/>
<g>
</g>
<g>
</g>
<g>
</g>
<g>
</g>
<g>
</g>
<g>
</g>
<g>
</g>
<g>
</g>
<g>
</g>
<g>
</g>
<g>
</g>
<g>
</g>
<g>
</g>
<g>
</g>
<g>
</g>
</svg>
